<svg xmlns="http://www.w3.org/2000/svg" version="1.1" xmlns:xlink="http://www.w3.org/1999/xlink" xmlns:svgjs="http://svgjs.dev/svgjs" width="1440" height="560" preserveAspectRatio="none" viewBox="0 0 1440 560">
    <g mask="url(&quot;#SvgjsMask1000&quot;)" fill="none">
        <rect width="1440" height="560" x="0" y="0" fill="#0e2a47"></rect>
        <path d="M-106.12 406.69L-106.12 406.69" stroke="#132e65" stroke-width="1.5"></path>
        <path d="M-106.12 406.69L-46.23 494.74" stroke="#132e65" stroke-width="1.5"></path>
        <path d="M-106.12 406.69L82.46 385.97" stroke="#132e65" stroke-width="1.5"></path>
        <path d="M-106.12 406.69L-44.11 668.45" stroke="#132e65" stroke-width="1.5"></path>
        <path d="M-106.12 406.69L222.99 366.71" stroke="#132e65" stroke-width="1.5"></path>
        <path d="M-106.12 406.69L80.81 687.07" stroke="#132e65" stroke-width="1.5"></path>
        <path d="M-46.23 494.74L-46.23 494.74" stroke="#132e65" stroke-width="1.5"></path>
        <path d="M-46.23 494.74L82.46 385.97" stroke="#132e65" stroke-width="1.5"></path>
        <path d="M-46.23 494.74L-44.11 668.45" stroke="#132e65" stroke-width="1.5"></path>
        <path d="M-46.23 494.74L80.81 687.07" stroke="#132e65" stroke-width="1.5"></path>
        <path d="M-46.23 494.74L245.89 510.59" stroke="#132e65" stroke-width="1.5"></path>
        <path d="M-44.11 668.45L-44.11 668.45" stroke="#132e65" stroke-width="1.5"></path>
        <path d="M-44.11 668.45L80.81 687.07" stroke="#132e65" stroke-width="1.5"></path>
        <path d="M82.46 385.97L82.46 385.97" stroke="#132e65" stroke-width="1.5"></path>
        <path d="M82.46 385.97L222.99 366.71" stroke="#132e65" stroke-width="1.5"></path>
        <path d="M82.46 385.97L245.89 510.59" stroke="#132e65" stroke-width="1.5"></path>
        <path d="M82.46 385.97L80.81 687.07" stroke="#132e65" stroke-width="1.5"></path>
        <path d="M82.46 385.97L-44.11 668.45" stroke="#132e65" stroke-width="1.5"></path>
        <path d="M80.81 687.07L80.81 687.07" stroke="#132e65" stroke-width="1.5"></path>
        <path d="M80.81 687.07L228.41 676.51" stroke="#132e65" stroke-width="1.5"></path>
        <path d="M80.81 687.07L245.89 510.59" stroke="#132e65" stroke-width="1.5"></path>
        <path d="M80.81 687.07L376.15 693.35" stroke="#132e65" stroke-width="1.5"></path>
        <path d="M222.99 366.71L222.99 366.71" stroke="#132e65" stroke-width="1.5"></path>
        <path d="M222.99 366.71L245.89 510.59" stroke="#132e65" stroke-width="1.5"></path>
        <path d="M222.99 366.71L396.52 406.78" stroke="#132e65" stroke-width="1.5"></path>
        <path d="M222.99 366.71L394.48 531.33" stroke="#132e65" stroke-width="1.5"></path>
        <path d="M222.99 366.71L-46.23 494.74" stroke="#132e65" stroke-width="1.5"></path>
        <path d="M245.89 510.59L245.89 510.59" stroke="#132e65" stroke-width="1.5"></path>
        <path d="M245.89 510.59L394.48 531.33" stroke="#132e65" stroke-width="1.5"></path>
        <path d="M245.89 510.59L228.41 676.51" stroke="#132e65" stroke-width="1.5"></path>
        <path d="M245.89 510.59L396.52 406.78" stroke="#132e65" stroke-width="1.5"></path>
        <path d="M245.89 510.59L376.15 693.35" stroke="#132e65" stroke-width="1.5"></path>
        <path d="M228.41 676.51L228.41 676.51" stroke="#132e65" stroke-width="1.5"></path>
        <path d="M228.41 676.51L376.15 693.35" stroke="#132e65" stroke-width="1.5"></path>
        <path d="M396.52 406.78L396.52 406.78" stroke="#132e65" stroke-width="1.5"></path>
        <path d="M396.52 406.78L394.48 531.33" stroke="#132e65" stroke-width="1.5"></path>
        <path d="M396.52 406.78L521.25 410.63" stroke="#132e65" stroke-width="1.5"></path>
        <path d="M394.48 531.33L394.48 531.33" stroke="#132e65" stroke-width="1.5"></path>
        <path d="M376.15 693.35L376.15 693.35" stroke="#132e65" stroke-width="1.5"></path>
        <path d="M376.15 693.35L501.57 645.65" stroke="#132e65" stroke-width="1.5"></path>
        <path d="M376.15 693.35L394.48 531.33" stroke="#132e65" stroke-width="1.5"></path>
        <path d="M376.15 693.35L644.6 690.43" stroke="#132e65" stroke-width="1.5"></path>
        <path d="M376.15 693.35L396.52 406.78" stroke="#132e65" stroke-width="1.5"></path>
        <path d="M521.25 410.63L521.25 410.63" stroke="#132e65" stroke-width="1.5"></path>
        <path d="M521.25 410.63L394.48 531.33" stroke="#132e65" stroke-width="1.5"></path>
        <path d="M521.25 410.63L700.38 373.95" stroke="#132e65" stroke-width="1.5"></path>
        <path d="M501.57 645.65L501.57 645.65" stroke="#132e65" stroke-width="1.5"></path>
        <path d="M501.57 645.65L644.6 690.43" stroke="#132e65" stroke-width="1.5"></path>
        <path d="M710.44 242.16L710.44 242.16" stroke="#132e65" stroke-width="1.5"></path>
        <path d="M710.44 242.16L700.38 373.95" stroke="#132e65" stroke-width="1.5"></path>
        <path d="M710.44 242.16L838.68 204.04" stroke="#132e65" stroke-width="1.5"></path>
        <path d="M710.44 242.16L858.47 390.28" stroke="#132e65" stroke-width="1.5"></path>
        <path d="M700.38 373.95L700.38 373.95" stroke="#132e65" stroke-width="1.5"></path>
        <path d="M700.38 373.95L858.47 390.28" stroke="#132e65" stroke-width="1.5"></path>
        <path d="M700.38 373.95L819.97 533.82" stroke="#132e65" stroke-width="1.5"></path>
        <path d="M700.38 373.95L838.68 204.04" stroke="#132e65" stroke-width="1.5"></path>
        <path d="M644.6 690.43L644.6 690.43" stroke="#132e65" stroke-width="1.5"></path>
        <path d="M644.6 690.43L794.78 640.41" stroke="#132e65" stroke-width="1.5"></path>
        <path d="M859.35 76.61L859.35 76.61" stroke="#132e65" stroke-width="1.5"></path>
        <path d="M859.35 76.61L987.27 66.03" stroke="#132e65" stroke-width="1.5"></path>
        <path d="M859.35 76.61L838.68 204.04" stroke="#132e65" stroke-width="1.5"></path>
        <path d="M859.35 76.61L1010.43 198.8" stroke="#132e65" stroke-width="1.5"></path>
        <path d="M859.35 76.61L979 -92.23" stroke="#132e65" stroke-width="1.5"></path>
        <path d="M838.68 204.04L838.68 204.04" stroke="#132e65" stroke-width="1.5"></path>
        <path d="M838.68 204.04L1010.43 198.8" stroke="#132e65" stroke-width="1.5"></path>
        <path d="M838.68 204.04L858.47 390.28" stroke="#132e65" stroke-width="1.5"></path>
        <path d="M858.47 390.28L858.47 390.28" stroke="#132e65" stroke-width="1.5"></path>
        <path d="M858.47 390.28L997.24 343.55" stroke="#132e65" stroke-width="1.5"></path>
        <path d="M858.47 390.28L819.97 533.82" stroke="#132e65" stroke-width="1.5"></path>
        <path d="M858.47 390.28L1006.95 488.83" stroke="#132e65" stroke-width="1.5"></path>
        <path d="M819.97 533.82L819.97 533.82" stroke="#132e65" stroke-width="1.5"></path>
        <path d="M819.97 533.82L794.78 640.41" stroke="#132e65" stroke-width="1.5"></path>
        <path d="M794.78 640.41L794.78 640.41" stroke="#132e65" stroke-width="1.5"></path>
        <path d="M794.78 640.41L976.72 673.5" stroke="#132e65" stroke-width="1.5"></path>
        <path d="M794.78 640.41L858.47 390.28" stroke="#132e65" stroke-width="1.5"></path>
        <path d="M794.78 640.41L1006.95 488.83" stroke="#132e65" stroke-width="1.5"></path>
        <path d="M979 -92.23L979 -92.23" stroke="#132e65" stroke-width="1.5"></path>
        <path d="M979 -92.23L987.27 66.03" stroke="#132e65" stroke-width="1.5"></path>
        <path d="M979 -92.23L1158.3 -99.28" stroke="#132e65" stroke-width="1.5"></path>
        <path d="M979 -92.23L1155.52 69.88" stroke="#132e65" stroke-width="1.5"></path>
        <path d="M979 -92.23L1010.43 198.8" stroke="#132e65" stroke-width="1.5"></path>
        <path d="M979 -92.23L1092.63 207.18" stroke="#132e65" stroke-width="1.5"></path>
        <path d="M987.27 66.03L987.27 66.03" stroke="#132e65" stroke-width="1.5"></path>
        <path d="M1010.43 198.8L1010.43 198.8" stroke="#132e65" stroke-width="1.5"></path>
        <path d="M1010.43 198.8L1092.63 207.18" stroke="#132e65" stroke-width="1.5"></path>
        <path d="M1010.43 198.8L987.27 66.03" stroke="#132e65" stroke-width="1.5"></path>
        <path d="M1010.43 198.8L997.24 343.55" stroke="#132e65" stroke-width="1.5"></path>
        <path d="M1010.43 198.8L1155.52 69.88" stroke="#132e65" stroke-width="1.5"></path>
        <path d="M997.24 343.55L997.24 343.55" stroke="#132e65" stroke-width="1.5"></path>
        <path d="M997.24 343.55L1113.13 404.78" stroke="#132e65" stroke-width="1.5"></path>
        <path d="M997.24 343.55L1006.95 488.83" stroke="#132e65" stroke-width="1.5"></path>
        <path d="M1006.95 488.83L1006.95 488.83" stroke="#132e65" stroke-width="1.5"></path>
        <path d="M1006.95 488.83L1113.92 552.14" stroke="#132e65" stroke-width="1.5"></path>
        <path d="M1006.95 488.83L1113.13 404.78" stroke="#132e65" stroke-width="1.5"></path>
        <path d="M1006.95 488.83L976.72 673.5" stroke="#132e65" stroke-width="1.5"></path>
        <path d="M976.72 673.5L976.72 673.5" stroke="#132e65" stroke-width="1.5"></path>
        <path d="M976.72 673.5L1137.78 653.12" stroke="#132e65" stroke-width="1.5"></path>
        <path d="M976.72 673.5L1113.92 552.14" stroke="#132e65" stroke-width="1.5"></path>
        <path d="M976.72 673.5L819.97 533.82" stroke="#132e65" stroke-width="1.5"></path>
        <path d="M976.72 673.5L1256.57 640.12" stroke="#132e65" stroke-width="1.5"></path>
        <path d="M1158.3 -99.28L1158.3 -99.28" stroke="#132e65" stroke-width="1.5"></path>
        <path d="M1158.3 -99.28L1301.88 -80.9" stroke="#132e65" stroke-width="1.5"></path>
        <path d="M1158.3 -99.28L1155.52 69.88" stroke="#132e65" stroke-width="1.5"></path>
        <path d="M1158.3 -99.28L1291.64 74.61" stroke="#132e65" stroke-width="1.5"></path>
        <path d="M1155.52 69.88L1155.52 69.88" stroke="#132e65" stroke-width="1.5"></path>
        <path d="M1155.52 69.88L1291.64 74.61" stroke="#132e65" stroke-width="1.5"></path>
        <path d="M1155.52 69.88L1092.63 207.18" stroke="#132e65" stroke-width="1.5"></path>
        <path d="M1155.52 69.88L987.27 66.03" stroke="#132e65" stroke-width="1.5"></path>
        <path d="M1092.63 207.18L1092.63 207.18" stroke="#132e65" stroke-width="1.5"></path>
        <path d="M1092.63 207.18L997.24 343.55" stroke="#132e65" stroke-width="1.5"></path>
        <path d="M1092.63 207.18L987.27 66.03" stroke="#132e65" stroke-width="1.5"></path>
        <path d="M1092.63 207.18L1113.13 404.78" stroke="#132e65" stroke-width="1.5"></path>
        <path d="M1113.13 404.78L1113.13 404.78" stroke="#132e65" stroke-width="1.5"></path>
        <path d="M1113.92 552.14L1113.92 552.14" stroke="#132e65" stroke-width="1.5"></path>
        <path d="M1113.92 552.14L1137.78 653.12" stroke="#132e65" stroke-width="1.5"></path>
        <path d="M1113.92 552.14L1247.7 500.63" stroke="#132e65" stroke-width="1.5"></path>
        <path d="M1137.78 653.12L1137.78 653.12" stroke="#132e65" stroke-width="1.5"></path>
        <path d="M1137.78 653.12L1256.57 640.12" stroke="#132e65" stroke-width="1.5"></path>
        <path d="M1137.78 653.12L1247.7 500.63" stroke="#132e65" stroke-width="1.5"></path>
        <path d="M1137.78 653.12L1006.95 488.83" stroke="#132e65" stroke-width="1.5"></path>
        <path d="M1301.88 -80.9L1301.88 -80.9" stroke="#132e65" stroke-width="1.5"></path>
        <path d="M1301.88 -80.9L1393.01 -95.03" stroke="#132e65" stroke-width="1.5"></path>
        <path d="M1301.88 -80.9L1291.64 74.61" stroke="#132e65" stroke-width="1.5"></path>
        <path d="M1301.88 -80.9L1432.17 69.01" stroke="#132e65" stroke-width="1.5"></path>
        <path d="M1291.64 74.61L1291.64 74.61" stroke="#132e65" stroke-width="1.5"></path>
        <path d="M1291.64 74.61L1432.17 69.01" stroke="#132e65" stroke-width="1.5"></path>
        <path d="M1291.64 74.61L1303.18 220.25" stroke="#132e65" stroke-width="1.5"></path>
        <path d="M1303.18 220.25L1303.18 220.25" stroke="#132e65" stroke-width="1.5"></path>
        <path d="M1303.18 220.25L1431.54 188.62" stroke="#132e65" stroke-width="1.5"></path>
        <path d="M1247.7 500.63L1247.7 500.63" stroke="#132e65" stroke-width="1.5"></path>
        <path d="M1247.7 500.63L1256.57 640.12" stroke="#132e65" stroke-width="1.5"></path>
        <path d="M1256.57 640.12L1256.57 640.12" stroke="#132e65" stroke-width="1.5"></path>
        <path d="M1256.57 640.12L1407.31 667.25" stroke="#132e65" stroke-width="1.5"></path>
        <path d="M1256.57 640.12L1113.92 552.14" stroke="#132e65" stroke-width="1.5"></path>
        <path d="M1256.57 640.12L1454.58 545.42" stroke="#132e65" stroke-width="1.5"></path>
        <path d="M1256.57 640.12L1113.13 404.78" stroke="#132e65" stroke-width="1.5"></path>
        <path d="M1393.01 -95.03L1393.01 -95.03" stroke="#132e65" stroke-width="1.5"></path>
        <path d="M1393.01 -95.03L1546.24 -111.18" stroke="#132e65" stroke-width="1.5"></path>
        <path d="M1393.01 -95.03L1432.17 69.01" stroke="#132e65" stroke-width="1.5"></path>
        <path d="M1393.01 -95.03L1291.64 74.61" stroke="#132e65" stroke-width="1.5"></path>
        <path d="M1393.01 -95.03L1158.3 -99.28" stroke="#132e65" stroke-width="1.5"></path>
        <path d="M1432.17 69.01L1432.17 69.01" stroke="#132e65" stroke-width="1.5"></path>
        <path d="M1432.17 69.01L1431.54 188.62" stroke="#132e65" stroke-width="1.5"></path>
        <path d="M1432.17 69.01L1573.16 85.41" stroke="#132e65" stroke-width="1.5"></path>
        <path d="M1432.17 69.01L1560.74 212.75" stroke="#132e65" stroke-width="1.5"></path>
        <path d="M1431.54 188.62L1431.54 188.62" stroke="#132e65" stroke-width="1.5"></path>
        <path d="M1431.54 188.62L1560.74 212.75" stroke="#132e65" stroke-width="1.5"></path>
        <path d="M1434.09 353.51L1434.09 353.51" stroke="#132e65" stroke-width="1.5"></path>
        <path d="M1434.09 353.51L1553.14 393.83" stroke="#132e65" stroke-width="1.5"></path>
        <path d="M1434.09 353.51L1431.54 188.62" stroke="#132e65" stroke-width="1.5"></path>
        <path d="M1434.09 353.51L1303.18 220.25" stroke="#132e65" stroke-width="1.5"></path>
        <path d="M1454.58 545.42L1454.58 545.42" stroke="#132e65" stroke-width="1.5"></path>
        <path d="M1454.58 545.42L1407.31 667.25" stroke="#132e65" stroke-width="1.5"></path>
        <path d="M1454.58 545.42L1598.03 511.7" stroke="#132e65" stroke-width="1.5"></path>
        <path d="M1407.31 667.25L1407.31 667.25" stroke="#132e65" stroke-width="1.5"></path>
        <path d="M1407.31 667.25L1563.38 697.76" stroke="#132e65" stroke-width="1.5"></path>
        <path d="M1546.24 -111.18L1546.24 -111.18" stroke="#132e65" stroke-width="1.5"></path>
        <path d="M1546.24 -111.18L1573.16 85.41" stroke="#132e65" stroke-width="1.5"></path>
        <path d="M1546.24 -111.18L1432.17 69.01" stroke="#132e65" stroke-width="1.5"></path>
        <path d="M1546.24 -111.18L1301.88 -80.9" stroke="#132e65" stroke-width="1.5"></path>
        <path d="M1573.16 85.41L1573.16 85.41" stroke="#132e65" stroke-width="1.5"></path>
        <path d="M1573.16 85.41L1560.74 212.75" stroke="#132e65" stroke-width="1.5"></path>
        <path d="M1573.16 85.41L1431.54 188.62" stroke="#132e65" stroke-width="1.5"></path>
        <path d="M1560.74 212.75L1560.74 212.75" stroke="#132e65" stroke-width="1.5"></path>
        <path d="M1560.74 212.75L1553.14 393.83" stroke="#132e65" stroke-width="1.5"></path>
        <path d="M1560.74 212.75L1434.09 353.51" stroke="#132e65" stroke-width="1.5"></path>
        <path d="M1553.14 393.83L1553.14 393.83" stroke="#132e65" stroke-width="1.5"></path>
        <path d="M1553.14 393.83L1598.03 511.7" stroke="#132e65" stroke-width="1.5"></path>
        <path d="M1598.03 511.7L1598.03 511.7" stroke="#132e65" stroke-width="1.5"></path>
        <path d="M1563.38 697.76L1563.38 697.76" stroke="#132e65" stroke-width="1.5"></path>
        <path d="M1563.38 697.76L1454.58 545.42" stroke="#132e65" stroke-width="1.5"></path>
        <path d="M1563.38 697.76L1598.03 511.7" stroke="#132e65" stroke-width="1.5"></path>
        <path d="M1563.38 697.76L1553.14 393.83" stroke="#132e65" stroke-width="1.5"></path>
        <circle r="5" cx="-106.12" cy="406.69" fill="#132e65"></circle>
        <circle r="5" cx="-46.23" cy="494.74" fill="#132e65"></circle>
        <circle r="5" cx="-44.11" cy="668.45" fill="#132e65"></circle>
        <circle r="5" cx="82.46" cy="385.97" fill="#132e65"></circle>
        <circle r="5" cx="80.81" cy="687.07" fill="#132e65"></circle>
        <circle r="5" cx="222.99" cy="366.71" fill="#132e65"></circle>
        <circle r="5" cx="245.89" cy="510.59" fill="#132e65"></circle>
        <circle r="5" cx="228.41" cy="676.51" fill="#132e65"></circle>
        <circle r="5" cx="396.52" cy="406.78" fill="#132e65"></circle>
        <circle r="5" cx="394.48" cy="531.33" fill="#132e65"></circle>
        <circle r="5" cx="376.15" cy="693.35" fill="#132e65"></circle>
        <circle r="5" cx="521.25" cy="410.63" fill="#132e65"></circle>
        <circle r="5" cx="501.57" cy="645.65" fill="#132e65"></circle>
        <circle r="5" cx="710.44" cy="242.16" fill="#132e65"></circle>
        <circle r="5" cx="700.38" cy="373.95" fill="#132e65"></circle>
        <circle r="5" cx="644.6" cy="690.43" fill="#132e65"></circle>
        <circle r="5" cx="859.35" cy="76.61" fill="#132e65"></circle>
        <circle r="5" cx="838.68" cy="204.04" fill="#132e65"></circle>
        <circle r="5" cx="858.47" cy="390.28" fill="#132e65"></circle>
        <circle r="5" cx="819.97" cy="533.82" fill="#132e65"></circle>
        <circle r="5" cx="794.78" cy="640.41" fill="#132e65"></circle>
        <circle r="5" cx="979" cy="-92.23" fill="#132e65"></circle>
        <circle r="5" cx="987.27" cy="66.03" fill="#132e65"></circle>
        <circle r="5" cx="1010.43" cy="198.8" fill="#132e65"></circle>
        <circle r="5" cx="997.24" cy="343.55" fill="#132e65"></circle>
        <circle r="5" cx="1006.95" cy="488.83" fill="#132e65"></circle>
        <circle r="5" cx="976.72" cy="673.5" fill="#132e65"></circle>
        <circle r="5" cx="1158.3" cy="-99.28" fill="#132e65"></circle>
        <circle r="5" cx="1155.52" cy="69.88" fill="#132e65"></circle>
        <circle r="5" cx="1092.63" cy="207.18" fill="#132e65"></circle>
        <circle r="5" cx="1113.13" cy="404.78" fill="#132e65"></circle>
        <circle r="5" cx="1113.92" cy="552.14" fill="#132e65"></circle>
        <circle r="5" cx="1137.78" cy="653.12" fill="#132e65"></circle>
        <circle r="5" cx="1301.88" cy="-80.9" fill="#132e65"></circle>
        <circle r="5" cx="1291.64" cy="74.61" fill="#132e65"></circle>
        <circle r="5" cx="1303.18" cy="220.25" fill="#132e65"></circle>
        <circle r="5" cx="1247.7" cy="500.63" fill="#132e65"></circle>
        <circle r="5" cx="1256.57" cy="640.12" fill="#132e65"></circle>
        <circle r="5" cx="1393.01" cy="-95.03" fill="#132e65"></circle>
        <circle r="5" cx="1432.17" cy="69.01" fill="#132e65"></circle>
        <circle r="5" cx="1431.54" cy="188.62" fill="#132e65"></circle>
        <circle r="5" cx="1434.09" cy="353.51" fill="#132e65"></circle>
        <circle r="5" cx="1454.58" cy="545.42" fill="#132e65"></circle>
        <circle r="5" cx="1407.31" cy="667.25" fill="#132e65"></circle>
        <circle r="5" cx="1546.24" cy="-111.18" fill="#132e65"></circle>
        <circle r="5" cx="1573.16" cy="85.41" fill="#132e65"></circle>
        <circle r="5" cx="1560.74" cy="212.75" fill="#132e65"></circle>
        <circle r="5" cx="1553.14" cy="393.83" fill="#132e65"></circle>
        <circle r="5" cx="1598.03" cy="511.7" fill="#132e65"></circle>
        <circle r="5" cx="1563.38" cy="697.76" fill="#132e65"></circle>
        <path d="M-81.88 652.42L-81.88 652.42" stroke="hsl(228.5, 77.2%, 51.5%)" stroke-width="1.5"></path>
        <path d="M-81.88 652.42L-94.04 518.8" stroke="hsl(228.5, 77.2%, 51.5%)" stroke-width="1.5"></path>
        <path d="M-81.88 652.42L81.85 673.07" stroke="hsl(228.5, 77.2%, 51.5%)" stroke-width="1.5"></path>
        <path d="M-81.88 652.42L106.87 514.77" stroke="hsl(228.5, 77.2%, 51.5%)" stroke-width="1.5"></path>
        <path d="M338.5 674.45L338.5 674.45" stroke="hsl(228.5, 77.2%, 51.5%)" stroke-width="1.5"></path>
        <path d="M338.5 674.45L376.48 560.8" stroke="hsl(228.5, 77.2%, 51.5%)" stroke-width="1.5"></path>
        <path d="M338.5 674.45L206.94 648.64" stroke="hsl(228.5, 77.2%, 51.5%)" stroke-width="1.5"></path>
        <path d="M338.5 674.45L259.75 521.8" stroke="hsl(228.5, 77.2%, 51.5%)" stroke-width="1.5"></path>
        <path d="M338.5 674.45L537.46 687.23" stroke="hsl(228.5, 77.2%, 51.5%)" stroke-width="1.5"></path>
        <path d="M338.5 674.45L531.49 552.8" stroke="hsl(228.5, 77.2%, 51.5%)" stroke-width="1.5"></path>
        <path d="M338.5 674.45L81.85 673.07" stroke="hsl(228.5, 77.2%, 51.5%)" stroke-width="1.5"></path>
        <path d="M696.94 691.54L696.94 691.54" stroke="hsl(228.5, 77.2%, 51.5%)" stroke-width="1.5"></path>
        <path d="M696.94 691.54L822.58 660.62" stroke="hsl(228.5, 77.2%, 51.5%)" stroke-width="1.5"></path>
        <path d="M696.94 691.54L537.46 687.23" stroke="hsl(228.5, 77.2%, 51.5%)" stroke-width="1.5"></path>
        <path d="M823.62 399.11L823.62 399.11" stroke="hsl(228.5, 77.2%, 51.5%)" stroke-width="1.5"></path>
        <path d="M823.62 399.11L848.36 502.79" stroke="hsl(228.5, 77.2%, 51.5%)" stroke-width="1.5"></path>
        <path d="M823.62 399.11L949.84 358.84" stroke="hsl(228.5, 77.2%, 51.5%)" stroke-width="1.5"></path>
        <path d="M823.62 399.11L699.78 514.92" stroke="hsl(228.5, 77.2%, 51.5%)" stroke-width="1.5"></path>
        <path d="M823.62 399.11L822.58 660.62" stroke="hsl(228.5, 77.2%, 51.5%)" stroke-width="1.5"></path>
        <path d="M823.62 399.11L1104.17 404.61" stroke="hsl(228.5, 77.2%, 51.5%)" stroke-width="1.5"></path>
        <path d="M1121.79 524.7L1121.79 524.7" stroke="hsl(228.5, 77.2%, 51.5%)" stroke-width="1.5"></path>
        <path d="M1121.79 524.7L1104.17 404.61" stroke="hsl(228.5, 77.2%, 51.5%)" stroke-width="1.5"></path>
        <path d="M1121.79 524.7L1118.45 691.89" stroke="hsl(228.5, 77.2%, 51.5%)" stroke-width="1.5"></path>
        <path d="M1121.79 524.7L996.32 660.03" stroke="hsl(228.5, 77.2%, 51.5%)" stroke-width="1.5"></path>
        <path d="M1121.79 524.7L1276.5 664.59" stroke="hsl(228.5, 77.2%, 51.5%)" stroke-width="1.5"></path>
        <path d="M1279.35 236.6L1279.35 236.6" stroke="hsl(228.5, 77.2%, 51.5%)" stroke-width="1.5"></path>
        <path d="M1279.35 236.6L1414.06 218.38" stroke="hsl(228.5, 77.2%, 51.5%)" stroke-width="1.5"></path>
        <path d="M1279.35 236.6L1282.71 83.33" stroke="hsl(228.5, 77.2%, 51.5%)" stroke-width="1.5"></path>
        <path d="M1279.35 236.6L1117.02 245.39" stroke="hsl(228.5, 77.2%, 51.5%)" stroke-width="1.5"></path>
        <path d="M1279.35 236.6L1303.48 398.16" stroke="hsl(228.5, 77.2%, 51.5%)" stroke-width="1.5"></path>
        <path d="M1279.35 236.6L1392.71 383.16" stroke="hsl(228.5, 77.2%, 51.5%)" stroke-width="1.5"></path>
        <path d="M1303.48 398.16L1303.48 398.16" stroke="hsl(228.5, 77.2%, 51.5%)" stroke-width="1.5"></path>
        <path d="M1303.48 398.16L1392.71 383.16" stroke="hsl(228.5, 77.2%, 51.5%)" stroke-width="1.5"></path>
        <path d="M1405.7 89.04L1405.7 89.04" stroke="hsl(228.5, 77.2%, 51.5%)" stroke-width="1.5"></path>
        <path d="M1405.7 89.04L1282.71 83.33" stroke="hsl(228.5, 77.2%, 51.5%)" stroke-width="1.5"></path>
        <path d="M1405.7 89.04L1414.06 218.38" stroke="hsl(228.5, 77.2%, 51.5%)" stroke-width="1.5"></path>
        <path d="M1598.12 383.8L1598.12 383.8" stroke="hsl(228.5, 77.2%, 51.5%)" stroke-width="1.5"></path>
        <path d="M1598.12 383.8L1571.21 247.54" stroke="hsl(228.5, 77.2%, 51.5%)" stroke-width="1.5"></path>
        <path d="M1598.12 383.8L1600.25 561.28" stroke="hsl(228.5, 77.2%, 51.5%)" stroke-width="1.5"></path>
        <path d="M1598.12 383.8L1460.12 529.96" stroke="hsl(228.5, 77.2%, 51.5%)" stroke-width="1.5"></path>
        <path d="M1598.12 383.8L1392.71 383.16" stroke="hsl(228.5, 77.2%, 51.5%)" stroke-width="1.5"></path>
        <path d="M1598.12 383.8L1414.06 218.38" stroke="hsl(228.5, 77.2%, 51.5%)" stroke-width="1.5"></path>
        <path d="M1598.12 383.8L1539.01 656.49" stroke="hsl(228.5, 77.2%, 51.5%)" stroke-width="1.5"></path>
        <path d="M-94.04 518.8L-94.04 518.8" stroke="hsl(228.5, 77.2%, 51.5%)" stroke-width="1.5"></path>
        <path d="M-94.04 518.8L106.87 514.77" stroke="hsl(228.5, 77.2%, 51.5%)" stroke-width="1.5"></path>
        <path d="M-94.04 518.8L81.85 673.07" stroke="hsl(228.5, 77.2%, 51.5%)" stroke-width="1.5"></path>
        <path d="M106.87 514.77L106.87 514.77" stroke="hsl(228.5, 77.2%, 51.5%)" stroke-width="1.5"></path>
        <path d="M106.87 514.77L259.75 521.8" stroke="hsl(228.5, 77.2%, 51.5%)" stroke-width="1.5"></path>
        <path d="M106.87 514.77L81.85 673.07" stroke="hsl(228.5, 77.2%, 51.5%)" stroke-width="1.5"></path>
        <path d="M106.87 514.77L206.94 648.64" stroke="hsl(228.5, 77.2%, 51.5%)" stroke-width="1.5"></path>
        <path d="M81.85 673.07L81.85 673.07" stroke="hsl(228.5, 77.2%, 51.5%)" stroke-width="1.5"></path>
        <path d="M81.85 673.07L206.94 648.64" stroke="hsl(228.5, 77.2%, 51.5%)" stroke-width="1.5"></path>
        <path d="M81.85 673.07L259.75 521.8" stroke="hsl(228.5, 77.2%, 51.5%)" stroke-width="1.5"></path>
        <path d="M259.75 521.8L259.75 521.8" stroke="hsl(228.5, 77.2%, 51.5%)" stroke-width="1.5"></path>
        <path d="M259.75 521.8L376.48 560.8" stroke="hsl(228.5, 77.2%, 51.5%)" stroke-width="1.5"></path>
        <path d="M259.75 521.8L206.94 648.64" stroke="hsl(228.5, 77.2%, 51.5%)" stroke-width="1.5"></path>
        <path d="M206.94 648.64L206.94 648.64" stroke="hsl(228.5, 77.2%, 51.5%)" stroke-width="1.5"></path>
        <path d="M206.94 648.64L376.48 560.8" stroke="hsl(228.5, 77.2%, 51.5%)" stroke-width="1.5"></path>
        <path d="M206.94 648.64L-81.88 652.42" stroke="hsl(228.5, 77.2%, 51.5%)" stroke-width="1.5"></path>
        <path d="M376.48 560.8L376.48 560.8" stroke="hsl(228.5, 77.2%, 51.5%)" stroke-width="1.5"></path>
        <path d="M531.49 552.8L531.49 552.8" stroke="hsl(228.5, 77.2%, 51.5%)" stroke-width="1.5"></path>
        <path d="M531.49 552.8L537.46 687.23" stroke="hsl(228.5, 77.2%, 51.5%)" stroke-width="1.5"></path>
        <path d="M531.49 552.8L376.48 560.8" stroke="hsl(228.5, 77.2%, 51.5%)" stroke-width="1.5"></path>
        <path d="M537.46 687.23L537.46 687.23" stroke="hsl(228.5, 77.2%, 51.5%)" stroke-width="1.5"></path>
        <path d="M537.46 687.23L376.48 560.8" stroke="hsl(228.5, 77.2%, 51.5%)" stroke-width="1.5"></path>
        <path d="M537.46 687.23L699.78 514.92" stroke="hsl(228.5, 77.2%, 51.5%)" stroke-width="1.5"></path>
        <path d="M699.78 514.92L699.78 514.92" stroke="hsl(228.5, 77.2%, 51.5%)" stroke-width="1.5"></path>
        <path d="M699.78 514.92L848.36 502.79" stroke="hsl(228.5, 77.2%, 51.5%)" stroke-width="1.5"></path>
        <path d="M848.36 502.79L848.36 502.79" stroke="hsl(228.5, 77.2%, 51.5%)" stroke-width="1.5"></path>
        <path d="M848.36 502.79L822.58 660.62" stroke="hsl(228.5, 77.2%, 51.5%)" stroke-width="1.5"></path>
        <path d="M848.36 502.79L949.84 358.84" stroke="hsl(228.5, 77.2%, 51.5%)" stroke-width="1.5"></path>
        <path d="M848.36 502.79L996.32 660.03" stroke="hsl(228.5, 77.2%, 51.5%)" stroke-width="1.5"></path>
        <path d="M848.36 502.79L696.94 691.54" stroke="hsl(228.5, 77.2%, 51.5%)" stroke-width="1.5"></path>
        <path d="M822.58 660.62L822.58 660.62" stroke="hsl(228.5, 77.2%, 51.5%)" stroke-width="1.5"></path>
        <path d="M822.58 660.62L996.32 660.03" stroke="hsl(228.5, 77.2%, 51.5%)" stroke-width="1.5"></path>
        <path d="M949.84 358.84L949.84 358.84" stroke="hsl(228.5, 77.2%, 51.5%)" stroke-width="1.5"></path>
        <path d="M949.84 358.84L1104.17 404.61" stroke="hsl(228.5, 77.2%, 51.5%)" stroke-width="1.5"></path>
        <path d="M949.84 358.84L1117.02 245.39" stroke="hsl(228.5, 77.2%, 51.5%)" stroke-width="1.5"></path>
        <path d="M949.84 358.84L1121.79 524.7" stroke="hsl(228.5, 77.2%, 51.5%)" stroke-width="1.5"></path>
        <path d="M996.32 660.03L996.32 660.03" stroke="hsl(228.5, 77.2%, 51.5%)" stroke-width="1.5"></path>
        <path d="M996.32 660.03L1118.45 691.89" stroke="hsl(228.5, 77.2%, 51.5%)" stroke-width="1.5"></path>
        <path d="M996.32 660.03L1104.17 404.61" stroke="hsl(228.5, 77.2%, 51.5%)" stroke-width="1.5"></path>
        <path d="M996.32 660.03L1276.5 664.59" stroke="hsl(228.5, 77.2%, 51.5%)" stroke-width="1.5"></path>
        <path d="M1117.02 245.39L1117.02 245.39" stroke="hsl(228.5, 77.2%, 51.5%)" stroke-width="1.5"></path>
        <path d="M1117.02 245.39L1104.17 404.61" stroke="hsl(228.5, 77.2%, 51.5%)" stroke-width="1.5"></path>
        <path d="M1117.02 245.39L1282.71 83.33" stroke="hsl(228.5, 77.2%, 51.5%)" stroke-width="1.5"></path>
        <path d="M1117.02 245.39L1303.48 398.16" stroke="hsl(228.5, 77.2%, 51.5%)" stroke-width="1.5"></path>
        <path d="M1104.17 404.61L1104.17 404.61" stroke="hsl(228.5, 77.2%, 51.5%)" stroke-width="1.5"></path>
        <path d="M1104.17 404.61L1303.48 398.16" stroke="hsl(228.5, 77.2%, 51.5%)" stroke-width="1.5"></path>
        <path d="M1104.17 404.61L1279.35 236.6" stroke="hsl(228.5, 77.2%, 51.5%)" stroke-width="1.5"></path>
        <path d="M1104.17 404.61L848.36 502.79" stroke="hsl(228.5, 77.2%, 51.5%)" stroke-width="1.5"></path>
        <path d="M1118.45 691.89L1118.45 691.89" stroke="hsl(228.5, 77.2%, 51.5%)" stroke-width="1.5"></path>
        <path d="M1118.45 691.89L1276.5 664.59" stroke="hsl(228.5, 77.2%, 51.5%)" stroke-width="1.5"></path>
        <path d="M1118.45 691.89L1104.17 404.61" stroke="hsl(228.5, 77.2%, 51.5%)" stroke-width="1.5"></path>
        <path d="M1118.45 691.89L822.58 660.62" stroke="hsl(228.5, 77.2%, 51.5%)" stroke-width="1.5"></path>
        <path d="M1282.71 83.33L1282.71 83.33" stroke="hsl(228.5, 77.2%, 51.5%)" stroke-width="1.5"></path>
        <path d="M1282.71 83.33L1414.06 218.38" stroke="hsl(228.5, 77.2%, 51.5%)" stroke-width="1.5"></path>
        <path d="M1282.71 83.33L1452.47 -50.39" stroke="hsl(228.5, 77.2%, 51.5%)" stroke-width="1.5"></path>
        <path d="M1276.5 664.59L1276.5 664.59" stroke="hsl(228.5, 77.2%, 51.5%)" stroke-width="1.5"></path>
        <path d="M1276.5 664.59L1460.12 529.96" stroke="hsl(228.5, 77.2%, 51.5%)" stroke-width="1.5"></path>
        <path d="M1276.5 664.59L1539.01 656.49" stroke="hsl(228.5, 77.2%, 51.5%)" stroke-width="1.5"></path>
        <path d="M1452.47 -50.39L1452.47 -50.39" stroke="hsl(228.5, 77.2%, 51.5%)" stroke-width="1.5"></path>
        <path d="M1452.47 -50.39L1405.7 89.04" stroke="hsl(228.5, 77.2%, 51.5%)" stroke-width="1.5"></path>
        <path d="M1452.47 -50.39L1598.15 -107.47" stroke="hsl(228.5, 77.2%, 51.5%)" stroke-width="1.5"></path>
        <path d="M1452.47 -50.39L1564.76 87.26" stroke="hsl(228.5, 77.2%, 51.5%)" stroke-width="1.5"></path>
        <path d="M1452.47 -50.39L1414.06 218.38" stroke="hsl(228.5, 77.2%, 51.5%)" stroke-width="1.5"></path>
        <path d="M1414.06 218.38L1414.06 218.38" stroke="hsl(228.5, 77.2%, 51.5%)" stroke-width="1.5"></path>
        <path d="M1414.06 218.38L1571.21 247.54" stroke="hsl(228.5, 77.2%, 51.5%)" stroke-width="1.5"></path>
        <path d="M1414.06 218.38L1392.71 383.16" stroke="hsl(228.5, 77.2%, 51.5%)" stroke-width="1.5"></path>
        <path d="M1392.71 383.16L1392.71 383.16" stroke="hsl(228.5, 77.2%, 51.5%)" stroke-width="1.5"></path>
        <path d="M1392.71 383.16L1460.12 529.96" stroke="hsl(228.5, 77.2%, 51.5%)" stroke-width="1.5"></path>
        <path d="M1460.12 529.96L1460.12 529.96" stroke="hsl(228.5, 77.2%, 51.5%)" stroke-width="1.5"></path>
        <path d="M1460.12 529.96L1600.25 561.28" stroke="hsl(228.5, 77.2%, 51.5%)" stroke-width="1.5"></path>
        <path d="M1460.12 529.96L1539.01 656.49" stroke="hsl(228.5, 77.2%, 51.5%)" stroke-width="1.5"></path>
        <path d="M1460.12 529.96L1303.48 398.16" stroke="hsl(228.5, 77.2%, 51.5%)" stroke-width="1.5"></path>
        <path d="M1598.15 -107.47L1598.15 -107.47" stroke="hsl(228.5, 77.2%, 51.5%)" stroke-width="1.5"></path>
        <path d="M1598.15 -107.47L1564.76 87.26" stroke="hsl(228.5, 77.2%, 51.5%)" stroke-width="1.5"></path>
        <path d="M1598.15 -107.47L1405.7 89.04" stroke="hsl(228.5, 77.2%, 51.5%)" stroke-width="1.5"></path>
        <path d="M1598.15 -107.47L1571.21 247.54" stroke="hsl(228.5, 77.2%, 51.5%)" stroke-width="1.5"></path>
        <path d="M1598.15 -107.47L1282.71 83.33" stroke="hsl(228.5, 77.2%, 51.5%)" stroke-width="1.5"></path>
        <path d="M1564.76 87.26L1564.76 87.26" stroke="hsl(228.5, 77.2%, 51.5%)" stroke-width="1.5"></path>
        <path d="M1564.76 87.26L1405.7 89.04" stroke="hsl(228.5, 77.2%, 51.5%)" stroke-width="1.5"></path>
        <path d="M1564.76 87.26L1571.21 247.54" stroke="hsl(228.5, 77.2%, 51.5%)" stroke-width="1.5"></path>
        <path d="M1571.21 247.54L1571.21 247.54" stroke="hsl(228.5, 77.2%, 51.5%)" stroke-width="1.5"></path>
        <path d="M1571.21 247.54L1392.71 383.16" stroke="hsl(228.5, 77.2%, 51.5%)" stroke-width="1.5"></path>
        <path d="M1571.21 247.54L1405.7 89.04" stroke="hsl(228.5, 77.2%, 51.5%)" stroke-width="1.5"></path>
        <path d="M1600.25 561.28L1600.25 561.28" stroke="hsl(228.5, 77.2%, 51.5%)" stroke-width="1.5"></path>
        <path d="M1600.25 561.28L1539.01 656.49" stroke="hsl(228.5, 77.2%, 51.5%)" stroke-width="1.5"></path>
        <path d="M1539.01 656.49L1539.01 656.49" stroke="hsl(228.5, 77.2%, 51.5%)" stroke-width="1.5"></path>
        <circle r="25" cx="-81.88" cy="652.42" fill="url(&quot;#SvgjsRadialGradient1001&quot;)"></circle>
        <circle r="25" cx="338.5" cy="674.45" fill="url(&quot;#SvgjsRadialGradient1001&quot;)"></circle>
        <circle r="25" cx="696.94" cy="691.54" fill="url(&quot;#SvgjsRadialGradient1001&quot;)"></circle>
        <circle r="25" cx="823.62" cy="399.11" fill="url(&quot;#SvgjsRadialGradient1001&quot;)"></circle>
        <circle r="25" cx="1121.79" cy="524.7" fill="url(&quot;#SvgjsRadialGradient1001&quot;)"></circle>
        <circle r="25" cx="1279.35" cy="236.6" fill="url(&quot;#SvgjsRadialGradient1001&quot;)"></circle>
        <circle r="25" cx="1303.48" cy="398.16" fill="url(&quot;#SvgjsRadialGradient1001&quot;)"></circle>
        <circle r="25" cx="1405.7" cy="89.04" fill="url(&quot;#SvgjsRadialGradient1001&quot;)"></circle>
        <circle r="25" cx="1598.12" cy="383.8" fill="url(&quot;#SvgjsRadialGradient1001&quot;)"></circle>
        <circle r="5" cx="-94.04" cy="518.8" fill="#8b9ad9"></circle>
        <circle r="5" cx="106.87" cy="514.77" fill="#8b9ad9"></circle>
        <circle r="5" cx="81.85" cy="673.07" fill="#8b9ad9"></circle>
        <circle r="5" cx="259.75" cy="521.8" fill="#8b9ad9"></circle>
        <circle r="5" cx="206.94" cy="648.64" fill="#8b9ad9"></circle>
        <circle r="5" cx="376.48" cy="560.8" fill="#8b9ad9"></circle>
        <circle r="5" cx="531.49" cy="552.8" fill="#8b9ad9"></circle>
        <circle r="5" cx="537.46" cy="687.23" fill="#8b9ad9"></circle>
        <circle r="5" cx="699.78" cy="514.92" fill="#8b9ad9"></circle>
        <circle r="5" cx="848.36" cy="502.79" fill="#8b9ad9"></circle>
        <circle r="5" cx="822.58" cy="660.62" fill="#8b9ad9"></circle>
        <circle r="5" cx="949.84" cy="358.84" fill="#8b9ad9"></circle>
        <circle r="5" cx="996.32" cy="660.03" fill="#8b9ad9"></circle>
        <circle r="5" cx="1117.02" cy="245.39" fill="#8b9ad9"></circle>
        <circle r="5" cx="1104.17" cy="404.61" fill="#8b9ad9"></circle>
        <circle r="5" cx="1118.45" cy="691.89" fill="#8b9ad9"></circle>
        <circle r="5" cx="1282.71" cy="83.33" fill="#8b9ad9"></circle>
        <circle r="5" cx="1276.5" cy="664.59" fill="#8b9ad9"></circle>
        <circle r="5" cx="1452.47" cy="-50.39" fill="#8b9ad9"></circle>
        <circle r="5" cx="1414.06" cy="218.38" fill="#8b9ad9"></circle>
        <circle r="5" cx="1392.71" cy="383.16" fill="#8b9ad9"></circle>
        <circle r="5" cx="1460.12" cy="529.96" fill="#8b9ad9"></circle>
        <circle r="5" cx="1598.15" cy="-107.47" fill="#8b9ad9"></circle>
        <circle r="5" cx="1564.76" cy="87.26" fill="#8b9ad9"></circle>
        <circle r="5" cx="1571.21" cy="247.54" fill="#8b9ad9"></circle>
        <circle r="5" cx="1600.25" cy="561.28" fill="#8b9ad9"></circle>
        <circle r="5" cx="1539.01" cy="656.49" fill="#8b9ad9"></circle>
    </g>
    <defs>
        <mask id="SvgjsMask1000">
            <rect width="1440" height="560" fill="#ffffff"></rect>
        </mask>
        <radialGradient id="SvgjsRadialGradient1001">
            <stop stop-color="#ffffff" offset="0.1"></stop>
            <stop stop-color="#1735b3" offset="0.2"></stop>
            <stop stop-color="rgba(23, 53, 179, 0)" offset="1"></stop>
        </radialGradient>
    </defs>
</svg>